<svg xmlns="http://www.w3.org/2000/svg" xmlns:xlink="http://www.w3.org/1999/xlink" version="1.1" preserveAspectRatio="none" x="0px" y="0px" viewBox="0 0 100 100"><defs><g id="a"><path fill="#ffffff" stroke="none" d=" M 76.75 48.25 L 56.75 28.25 Q 56.05 27.5 55 27.5 53.95 27.5 53.2 28.25 52.5 28.95 52.5 30 52.5 31.05 53.2 31.8 L 68.95 47.5 25 47.5 Q 23.95 47.5 23.2 48.25 22.5 48.95 22.5 50 22.5 51.05 23.2 51.8 23.95 52.5 25 52.5 L 68.95 52.5 53.2 68.25 Q 52.5 68.95 52.5 70 52.5 71.05 53.2 71.8 53.95 72.5 55 72.5 56.05 72.5 56.75 71.8 L 76.75 51.8 Q 77.5 51.05 77.5 50 77.5 48.95 76.75 48.25 Z"/></g></defs><g transform="matrix( 1, 0, 0, 1, 0,0) "><use xlink:href="#a"/></g></svg>